<svg width="1024" height="1024" viewBox="0 0 1024 1024" fill="none" xmlns="http://www.w3.org/2000/svg">
<rect width="1024" height="1024" rx="256" fill="black"/>
<path d="M714.257 264.928C720.145 262.972 726.461 262.692 732.498 264.12C738.536 265.548 744.056 268.628 748.443 273.015C752.83 277.402 755.91 282.923 757.338 288.96C758.766 294.997 758.486 301.313 756.53 307.201L689.142 509.398L756.52 711.639C758.37 717.187 758.733 723.124 757.571 728.857C756.41 734.59 753.765 739.918 749.9 744.309C746.035 748.7 741.087 752 735.548 753.881C730.009 755.761 724.074 756.155 718.335 755.025L714.245 753.913L512.028 686.512L309.831 753.947C304.278 755.805 298.335 756.173 292.597 755.013C286.858 753.853 281.524 751.207 277.129 747.339C272.735 743.471 269.433 738.516 267.554 732.971C265.675 727.426 265.285 721.485 266.423 715.741L267.534 711.651L334.922 509.407L267.521 307.237C265.663 301.685 265.296 295.742 266.456 290.003C267.616 284.264 270.263 278.931 274.131 274.536C278 270.14 282.954 266.838 288.5 264.959C294.045 263.08 299.986 262.69 305.729 263.827L309.82 264.939L512.037 332.292L714.257 264.928Z" fill="white"/>
</svg>
