<svg width="3807" height="3807" viewBox="0 0 3807 3807" fill="none" xmlns="http://www.w3.org/2000/svg">
<g clip-path="url(#clip0_452_5229)">
<rect width="3807" height="3807" fill="#D6E806"/>
<path d="M2768.83 857.483C2794 849.118 2821.01 847.922 2846.82 854.03C2872.64 860.137 2896.25 873.307 2915.01 892.066C2933.77 910.824 2946.94 934.432 2953.04 960.249C2959.15 986.065 2957.95 1013.07 2949.59 1038.25L2661.46 1902.84L2949.59 2767.63C2957.5 2791.36 2959.05 2816.75 2954.09 2841.26C2949.12 2865.78 2937.81 2888.56 2921.29 2907.33C2904.76 2926.11 2883.6 2940.22 2859.92 2948.26C2836.23 2956.3 2810.85 2957.99 2786.31 2953.15L2768.83 2948.4L1904.13 2660.17L1039.54 2948.5C1015.8 2956.44 990.385 2958.02 965.846 2953.06C941.306 2948.1 918.499 2936.78 899.706 2920.24C880.913 2903.7 866.793 2882.51 858.758 2858.8C850.723 2835.09 849.056 2809.68 853.922 2785.13L858.673 2767.64L1146.8 1902.84L858.572 1038.35C850.628 1014.61 849.057 989.195 854.017 964.655C858.977 940.116 870.293 917.309 886.834 898.516C903.375 879.723 924.561 865.603 948.272 857.568C971.984 849.533 997.389 847.866 1021.95 852.732L1039.44 857.483L1904.13 1145.51L2768.83 857.483Z" fill="#242702"/>
</g>
<defs>
<clipPath id="clip0_452_5229">
<rect width="3807" height="3807" fill="white"/>
</clipPath>
</defs>
</svg>
