<svg width="1024" height="1024" viewBox="0 0 1024 1024" fill="none" xmlns="http://www.w3.org/2000/svg">
<rect width="1024" height="1024" rx="256" fill="url(#paint0_linear_3063_4641)"/>
<path d="M714.258 267.357C720.145 265.4 726.461 265.121 732.498 266.549C738.536 267.977 744.057 271.057 748.444 275.443C752.83 279.83 755.91 285.351 757.338 291.389C758.766 297.426 758.487 303.742 756.53 309.63L689.142 511.826L756.52 714.067C758.37 719.616 758.733 725.553 757.572 731.286C756.41 737.019 753.765 742.347 749.9 746.738C746.036 751.128 741.087 754.429 735.548 756.309C730.009 758.19 724.074 758.584 718.335 757.453L714.245 756.342L512.028 688.941L309.831 756.376C304.279 758.234 298.336 758.602 292.597 757.442C286.858 756.282 281.525 753.636 277.13 749.768C272.735 745.899 269.433 740.945 267.554 735.4C265.675 729.855 265.285 723.913 266.423 718.17L267.535 714.08L334.922 511.836L267.521 309.666C265.664 304.113 265.296 298.171 266.456 292.432C267.616 286.693 270.263 281.359 274.132 276.964C278 272.569 282.955 269.267 288.5 267.388C294.045 265.508 299.986 265.118 305.73 266.256L309.82 267.367L512.037 334.721L714.258 267.357Z" fill="#172029"/>
<defs>
<linearGradient id="paint0_linear_3063_4641" x1="46.164" y1="33.6842" x2="1230.31" y2="499.076" gradientUnits="userSpaceOnUse">
<stop stop-color="#9FE07A"/>
<stop offset="0.442308" stop-color="#6EDBFF"/>
<stop offset="1" stop-color="#F2ACAE"/>
</linearGradient>
</defs>
</svg>
