<svg width="318" height="78" viewBox="0 0 318 78" fill="none" xmlns="http://www.w3.org/2000/svg">
<g clip-path="url(#clip0_3063_4665)">
<path d="M280.863 53.9298L292.268 38.8957L281.324 24.6104H288.064L295.609 34.6331L303.155 24.6104H309.664L298.835 38.8381L310.356 53.9298H303.616L295.494 43.1006L287.372 53.9298H280.863Z" fill="#191919"/>
<path d="M262.763 54.4481C260.651 54.4481 258.789 54.0833 257.176 53.3537C255.563 52.5856 254.296 51.5296 253.374 50.1855C252.452 48.8415 251.992 47.2862 251.992 45.5198C251.992 42.7549 253.048 40.5852 255.16 39.0107C257.272 37.3979 260.171 36.5914 263.858 36.5914C266.738 36.5914 269.407 37.1483 271.864 38.2619V35.1514C271.864 33.0393 271.25 31.4649 270.021 30.428C268.831 29.3912 267.064 28.8728 264.722 28.8728C263.378 28.8728 261.976 29.084 260.517 29.5064C259.057 29.8904 257.425 30.5048 255.621 31.3496L253.489 27.0295C255.717 25.9927 257.79 25.2438 259.71 24.783C261.63 24.2838 263.57 24.0342 265.528 24.0342C269.33 24.0342 272.268 24.9366 274.341 26.7415C276.453 28.5463 277.509 31.1192 277.509 34.4602V53.9297H271.864V51.3952C270.559 52.432 269.157 53.2001 267.659 53.6993C266.162 54.1985 264.53 54.4481 262.763 54.4481ZM257.521 45.4046C257.521 46.8254 258.117 47.9775 259.307 48.8607C260.536 49.7439 262.13 50.1855 264.088 50.1855C265.624 50.1855 267.026 49.9551 268.293 49.4943C269.599 49.0335 270.789 48.3231 271.864 47.363V42.4093C270.751 41.7564 269.579 41.2956 268.351 41.0268C267.16 40.7196 265.816 40.566 264.318 40.566C262.206 40.566 260.536 41.0076 259.307 41.8908C258.117 42.7357 257.521 43.9069 257.521 45.4046Z" fill="#191919"/>
<path d="M243.658 54.4481C240.816 54.4481 238.647 53.7953 237.149 52.4897C235.652 51.1456 234.903 49.2063 234.903 46.6718V29.4488H228.682V24.6102H234.903V17.122L240.605 15.7395V24.6102H249.246V29.4488H240.605V45.347C240.605 46.8446 240.932 47.9199 241.585 48.5727C242.276 49.1871 243.389 49.4943 244.925 49.4943C245.732 49.4943 246.442 49.4367 247.057 49.3215C247.71 49.2063 248.401 49.0335 249.13 48.8031V53.6417C248.362 53.9105 247.46 54.1025 246.423 54.2177C245.425 54.3713 244.503 54.4481 243.658 54.4481Z" fill="#191919"/>
<path d="M214.968 54.5057C212.433 54.5057 210.053 54.1409 207.825 53.4113C205.636 52.6432 203.736 51.568 202.123 50.1855L205.291 46.3838C206.788 47.5742 208.325 48.4959 209.899 49.1487C211.512 49.7631 213.144 50.0703 214.795 50.0703C216.869 50.0703 218.558 49.6671 219.864 48.8607C221.17 48.0543 221.823 46.9982 221.823 45.6926C221.823 44.6173 221.439 43.7725 220.671 43.1581C219.903 42.5437 218.712 42.1212 217.099 41.8908L211.8 41.142C208.881 40.7196 206.692 39.8172 205.233 38.4347C203.774 37.0523 203.044 35.209 203.044 32.9049C203.044 31.1384 203.524 29.6024 204.484 28.2967C205.444 26.9527 206.788 25.9159 208.517 25.1862C210.245 24.4182 212.261 24.0342 214.565 24.0342C216.677 24.0342 218.712 24.3414 220.671 24.9558C222.629 25.5702 224.511 26.5303 226.316 27.8359L223.378 31.6377C221.765 30.5624 220.191 29.7752 218.654 29.276C217.157 28.7768 215.64 28.5271 214.104 28.5271C212.337 28.5271 210.917 28.9112 209.841 29.6792C208.766 30.4088 208.229 31.3689 208.229 32.5593C208.229 33.6345 208.593 34.4794 209.323 35.0938C210.091 35.6698 211.339 36.073 213.067 36.3034L218.366 37.0523C221.285 37.4747 223.493 38.3771 224.991 39.7596C226.488 41.1036 227.237 42.9277 227.237 45.2318C227.237 46.9982 226.7 48.5919 225.624 50.0127C224.549 51.3952 223.09 52.4896 221.247 53.2961C219.403 54.1025 217.31 54.5057 214.968 54.5057Z" fill="#191919"/>
<path d="M184.176 54.5057C181.334 54.5057 178.742 53.8337 176.4 52.4896C174.096 51.1456 172.272 49.3215 170.927 47.0174C169.583 44.7133 168.911 42.1404 168.911 39.2987C168.911 36.457 169.583 33.8841 170.927 31.5801C172.272 29.276 174.096 27.4519 176.4 26.1079C178.742 24.7254 181.334 24.0342 184.176 24.0342C187.056 24.0342 189.648 24.7254 191.952 26.1079C194.256 27.4519 196.08 29.276 197.424 31.5801C198.768 33.8841 199.44 36.457 199.44 39.2987C199.44 42.1404 198.768 44.7133 197.424 47.0174C196.08 49.3215 194.256 51.1456 191.952 52.4896C189.648 53.8337 187.056 54.5057 184.176 54.5057ZM184.176 49.4367C185.981 49.4367 187.613 48.9951 189.072 48.1119C190.531 47.1902 191.683 45.9614 192.528 44.4253C193.373 42.8893 193.795 41.1612 193.795 39.2411C193.795 37.3595 193.354 35.6698 192.471 34.1722C191.626 32.6361 190.474 31.4073 189.015 30.4856C187.594 29.564 185.981 29.1032 184.176 29.1032C182.371 29.1032 180.739 29.564 179.28 30.4856C177.859 31.4073 176.707 32.6361 175.824 34.1722C174.979 35.6698 174.556 37.3595 174.556 39.2411C174.556 41.1612 174.979 42.8893 175.824 44.4253C176.668 45.9614 177.821 47.1902 179.28 48.1119C180.739 48.9951 182.371 49.4367 184.176 49.4367Z" fill="#191919"/>
<path d="M137.554 53.9297V24.6102H143.314V27.6055C145.58 25.2246 148.517 24.0342 152.127 24.0342C154.393 24.0342 156.37 24.5142 158.06 25.4742C159.788 26.4343 161.132 27.7783 162.092 29.5064C163.091 31.2344 163.59 33.2313 163.59 35.497V53.9297H157.83V36.4762C157.83 34.1722 157.177 32.3673 155.871 31.0616C154.604 29.7176 152.818 29.0456 150.514 29.0456C148.978 29.0456 147.596 29.372 146.367 30.0248C145.138 30.6776 144.12 31.6185 143.314 32.8473V53.9297H137.554Z" fill="#191919"/>
<path d="M116.842 54.5057C114 54.5057 111.408 53.8337 109.066 52.4896C106.762 51.1456 104.938 49.3215 103.594 47.0174C102.25 44.7133 101.578 42.1404 101.578 39.2987C101.578 36.457 102.25 33.8841 103.594 31.5801C104.938 29.276 106.762 27.4519 109.066 26.1079C111.408 24.7254 114 24.0342 116.842 24.0342C119.722 24.0342 122.314 24.7254 124.618 26.1079C126.923 27.4519 128.747 29.276 130.091 31.5801C131.435 33.8841 132.107 36.457 132.107 39.2987C132.107 42.1404 131.435 44.7133 130.091 47.0174C128.747 49.3215 126.923 51.1456 124.618 52.4896C122.314 53.8337 119.722 54.5057 116.842 54.5057ZM116.842 49.4367C118.647 49.4367 120.279 48.9951 121.738 48.1119C123.198 47.1902 124.35 45.9614 125.195 44.4253C126.039 42.8893 126.462 41.1612 126.462 39.2411C126.462 37.3595 126.02 35.6698 125.137 34.1722C124.292 32.6361 123.14 31.4073 121.681 30.4856C120.26 29.564 118.647 29.1032 116.842 29.1032C115.037 29.1032 113.405 29.564 111.946 30.4856C110.525 31.4073 109.373 32.6361 108.49 34.1722C107.645 35.6698 107.223 37.3595 107.223 39.2411C107.223 41.1612 107.645 42.8893 108.49 44.4253C109.335 45.9614 110.487 47.1902 111.946 48.1119C113.405 48.9951 115.037 49.4367 116.842 49.4367Z" fill="#191919"/>
<path d="M52.3319 53.9297V24.6102H58.0921V27.4327C60.281 25.167 63.0267 24.0342 66.3292 24.0342C68.3261 24.0342 70.0926 24.4758 71.6286 25.359C73.2031 26.2423 74.4511 27.4327 75.3728 28.9304C76.6016 27.3175 78.0417 26.1079 79.6929 25.3014C81.3442 24.4566 83.2066 24.0342 85.2803 24.0342C87.4692 24.0342 89.3701 24.5142 90.9829 25.4742C92.6342 26.4343 93.9206 27.7783 94.8423 29.5064C95.8023 31.2344 96.2823 33.2313 96.2823 35.497V53.9297H90.5221V36.4762C90.5221 34.1722 89.9077 32.3673 88.6788 31.0616C87.4884 29.7176 85.8563 29.0456 83.7827 29.0456C82.3618 29.0456 81.0754 29.372 79.9233 30.0248C78.7713 30.6776 77.7728 31.6761 76.928 33.0201C77.0048 33.4041 77.0624 33.8073 77.1008 34.2298C77.1392 34.6522 77.1584 35.0746 77.1584 35.497V53.9297H71.4558V36.4762C71.4558 34.1722 70.8414 32.3673 69.6125 31.0616C68.4221 29.7176 66.79 29.0456 64.7164 29.0456C63.3339 29.0456 62.0859 29.3528 60.9722 29.9672C59.8586 30.5432 58.8986 31.4265 58.0921 32.6169V53.9297H52.3319Z" fill="#191919"/>
<path d="M40.0562 21.5935C40.484 21.4514 40.943 21.431 41.3817 21.5348C41.8204 21.6386 42.2215 21.8624 42.5403 22.1812C42.8591 22.4999 43.0829 22.9011 43.1866 23.3398C43.2904 23.7785 43.2701 24.2374 43.128 24.6652L38.2317 39.3574L43.128 54.053C43.2624 54.4561 43.2888 54.8876 43.2044 55.3041C43.12 55.7207 42.9278 56.1078 42.647 56.4269C42.3662 56.7459 42.0066 56.9857 41.6042 57.1224C41.2017 57.259 40.7704 57.2876 40.3534 57.2054L40.0562 57.1247L25.3624 52.2267L10.6702 57.1264C10.2668 57.2614 9.83496 57.2881 9.41795 57.2038C9.00095 57.1195 8.61339 56.9272 8.29404 56.6462C7.97469 56.3651 7.73474 56.0051 7.59821 55.6021C7.46167 55.1992 7.43333 54.7675 7.51602 54.3502L7.59676 54.053L12.493 39.3574L7.59505 24.667C7.46005 24.2635 7.43336 23.8317 7.51764 23.4147C7.60192 22.9977 7.79422 22.6101 8.07531 22.2908C8.35639 21.9714 8.71641 21.7315 9.11933 21.5949C9.52226 21.4584 9.95398 21.4301 10.3713 21.5128L10.6685 21.5935L25.3624 26.488L40.0562 21.5935Z" fill="#191919"/>
</g>
<defs>
<clipPath id="clip0_3063_4665">
<rect width="318" height="78" fill="white"/>
</clipPath>
</defs>
</svg>
