<svg width="318" height="78" viewBox="0 0 318 78" fill="none" xmlns="http://www.w3.org/2000/svg">
<path d="M271.47 50.6556L280.367 38.868L271.693 27.4807H278.765L283.881 34.3753L288.952 27.4807H295.802L287.261 38.779L296.335 50.6556H289.218L283.747 43.2716L278.276 50.6556H271.47Z" fill="#191919"/>
<path d="M256.672 51.056C255.011 51.056 253.543 50.7595 252.268 50.1664C250.993 49.5436 250 48.6985 249.288 47.6309C248.576 46.5634 248.221 45.3327 248.221 43.939C248.221 41.7149 249.051 39.9949 250.711 38.7791C252.402 37.5336 254.715 36.9109 257.651 36.9109C259.667 36.9109 261.565 37.2223 263.344 37.845V36.1547C263.344 34.8203 262.929 33.812 262.099 33.13C261.268 32.4479 260.053 32.1069 258.451 32.1069C257.473 32.1069 256.42 32.27 255.293 32.5962C254.166 32.8927 252.861 33.3672 251.379 34.0196L249.155 29.527C250.993 28.6967 252.743 28.0739 254.403 27.6588C256.094 27.2436 257.784 27.036 259.474 27.036C262.588 27.036 265.005 27.7922 266.725 29.3046C268.474 30.7873 269.349 32.8927 269.349 35.6209V50.6557H263.344V49.0099C262.395 49.7216 261.372 50.2405 260.275 50.5667C259.178 50.8929 257.977 51.056 256.672 51.056ZM254.003 43.8055C254.003 44.6952 254.389 45.4069 255.16 45.9406C255.931 46.4448 256.954 46.6968 258.229 46.6968C259.237 46.6968 260.171 46.5782 261.031 46.341C261.891 46.0741 262.662 45.6886 263.344 45.1845V41.8039C262.603 41.5073 261.832 41.2849 261.031 41.1366C260.231 40.9884 259.371 40.9142 258.451 40.9142C257.058 40.9142 255.96 41.1811 255.16 41.7149C254.389 42.219 254.003 42.9159 254.003 43.8055Z" fill="#191919"/>
<path d="M241.422 51.0113C238.842 51.0113 236.885 50.4331 235.551 49.2766C234.246 48.0904 233.594 46.3704 233.594 44.1167V32.5515H228.834V27.4806H233.594V21.5646L239.688 20.1857V27.4806H246.315V32.5515H239.688V42.8712C239.688 43.9388 239.925 44.7098 240.399 45.1843C240.874 45.6291 241.704 45.8515 242.89 45.8515C243.483 45.8515 244.017 45.8218 244.492 45.7625C244.996 45.6736 245.544 45.5253 246.137 45.3177V50.3441C245.515 50.5517 244.729 50.7148 243.78 50.8334C242.861 50.952 242.075 51.0113 241.422 51.0113Z" fill="#191919"/>
<path d="M217.694 51.1002C215.559 51.1002 213.587 50.8333 211.778 50.2995C209.969 49.7361 208.397 48.9354 207.063 47.8975L210.088 43.8497C211.422 44.7393 212.697 45.4066 213.913 45.8514C215.158 46.2962 216.389 46.5186 217.605 46.5186C218.969 46.5186 220.051 46.2962 220.852 45.8514C221.682 45.3769 222.098 44.769 222.098 44.0276C222.098 43.4346 221.86 42.9601 221.386 42.6042C220.941 42.2484 220.214 41.9963 219.206 41.848L214.758 41.1808C212.445 40.825 210.695 40.0836 209.509 38.9568C208.323 37.8002 207.73 36.2879 207.73 34.4196C207.73 32.9073 208.116 31.6173 208.887 30.5498C209.687 29.4525 210.799 28.6074 212.223 28.0143C213.676 27.3916 215.396 27.0802 217.383 27.0802C219.073 27.0802 220.719 27.3174 222.32 27.7919C223.951 28.2664 225.478 28.9929 226.902 29.9715L223.966 33.9303C222.691 33.1297 221.475 32.5514 220.318 32.1956C219.162 31.8397 217.99 31.6618 216.804 31.6618C215.707 31.6618 214.817 31.8694 214.135 32.2845C213.483 32.6997 213.157 33.2483 213.157 33.9303C213.157 34.5531 213.394 35.0424 213.868 35.3982C214.343 35.7541 215.158 36.0061 216.315 36.1544L220.719 36.8216C223.032 37.1478 224.796 37.8892 226.012 39.0457C227.228 40.1726 227.836 41.6405 227.836 43.4494C227.836 44.9321 227.391 46.2517 226.501 47.4082C225.612 48.5351 224.411 49.4396 222.898 50.1216C221.386 50.774 219.651 51.1002 217.694 51.1002Z" fill="#191919"/>
<path d="M192.908 51.1005C190.595 51.1005 188.505 50.5667 186.636 49.4992C184.768 48.4316 183.286 46.9934 182.188 45.1845C181.091 43.3755 180.542 41.3442 180.542 39.0905C180.542 36.8368 181.076 34.8054 182.144 32.9965C183.241 31.158 184.724 29.7049 186.592 28.6373C188.49 27.5698 190.595 27.036 192.908 27.036C195.221 27.036 197.312 27.5698 199.18 28.6373C201.078 29.7049 202.561 31.158 203.628 32.9965C204.726 34.8054 205.274 36.8368 205.274 39.0905C205.274 41.3442 204.726 43.3755 203.628 45.1845C202.561 46.9934 201.093 48.4316 199.225 49.4992C197.356 50.5667 195.251 51.1005 192.908 51.1005ZM192.908 45.8072C194.124 45.8072 195.207 45.5107 196.155 44.9176C197.134 44.3245 197.905 43.5238 198.469 42.5156C199.062 41.4777 199.358 40.336 199.358 39.0905C199.358 37.8154 199.062 36.6737 198.469 35.6654C197.905 34.6572 197.134 33.8565 196.155 33.2634C195.207 32.6407 194.124 32.3293 192.908 32.3293C191.722 32.3293 190.64 32.6407 189.661 33.2634C188.683 33.8565 187.912 34.6572 187.348 35.6654C186.785 36.6737 186.503 37.8154 186.503 39.0905C186.503 40.336 186.785 41.4777 187.348 42.5156C187.912 43.5238 188.683 44.3245 189.661 44.9176C190.64 45.5107 191.722 45.8072 192.908 45.8072Z" fill="#191919"/>
<path d="M155.243 50.6557V27.4808H161.337V29.3935C163.086 27.8219 165.251 27.036 167.831 27.036C169.64 27.036 171.226 27.4363 172.59 28.237C173.984 29.008 175.067 30.0904 175.838 31.4842C176.609 32.8483 176.994 34.4496 176.994 36.2882V50.6557H170.9V37.1778C170.9 35.6654 170.47 34.4792 169.61 33.6193C168.75 32.7296 167.579 32.2848 166.096 32.2848C165.058 32.2848 164.139 32.4924 163.338 32.9076C162.538 33.2931 161.87 33.8565 161.337 34.5979V50.6557H155.243Z" fill="#191919"/>
<path d="M139.131 51.1005C136.818 51.1005 134.727 50.5667 132.859 49.4992C130.991 48.4316 129.508 46.9934 128.411 45.1845C127.314 43.3755 126.765 41.3442 126.765 39.0905C126.765 36.8368 127.299 34.8054 128.366 32.9965C129.464 31.158 130.946 29.7049 132.815 28.6373C134.712 27.5698 136.818 27.036 139.131 27.036C141.444 27.036 143.535 27.5698 145.403 28.6373C147.301 29.7049 148.783 31.158 149.851 32.9965C150.948 34.8054 151.497 36.8368 151.497 39.0905C151.497 41.3442 150.948 43.3755 149.851 45.1845C148.783 46.9934 147.316 48.4316 145.447 49.4992C143.579 50.5667 141.474 51.1005 139.131 51.1005ZM139.131 45.8072C140.347 45.8072 141.429 45.5107 142.378 44.9176C143.357 44.3245 144.128 43.5238 144.691 42.5156C145.284 41.4777 145.581 40.336 145.581 39.0905C145.581 37.8154 145.284 36.6737 144.691 35.6654C144.128 34.6572 143.357 33.8565 142.378 33.2634C141.429 32.6407 140.347 32.3293 139.131 32.3293C137.945 32.3293 136.862 32.6407 135.884 33.2634C134.905 33.8565 134.134 34.6572 133.571 35.6654C133.007 36.6737 132.726 37.8154 132.726 39.0905C132.726 40.336 133.007 41.4777 133.571 42.5156C134.134 43.5238 134.905 44.3245 135.884 44.9176C136.862 45.5107 137.945 45.8072 139.131 45.8072Z" fill="#191919"/>
<path d="M87.5648 50.6557V27.4808H93.6587V29.2601C95.3194 27.7774 97.3359 27.036 99.7082 27.036C101.221 27.036 102.57 27.3474 103.756 27.9701C104.942 28.5632 105.921 29.4084 106.692 30.5056C107.641 29.3787 108.753 28.5187 110.028 27.9256C111.333 27.3326 112.771 27.036 114.343 27.036C116.092 27.036 117.619 27.4363 118.924 28.237C120.259 29.008 121.297 30.0904 122.038 31.4842C122.809 32.8483 123.194 34.4496 123.194 36.2882V50.6557H117.145V37.1778C117.145 35.6654 116.745 34.4792 115.944 33.6193C115.143 32.7296 114.076 32.2848 112.741 32.2848C111.822 32.2848 110.977 32.4776 110.206 32.8631C109.464 33.2486 108.827 33.8269 108.293 34.5979C108.323 34.8648 108.352 35.1316 108.382 35.3985C108.412 35.6654 108.427 35.962 108.427 36.2882V50.6557H102.333V37.1778C102.333 35.6654 101.932 34.4792 101.132 33.6193C100.361 32.7296 99.3079 32.2848 97.9734 32.2848C97.0541 32.2848 96.2238 32.4628 95.4825 32.8186C94.7708 33.1745 94.1628 33.7082 93.6587 34.4199V50.6557H87.5648Z" fill="#191919"/>
<path d="M70.7063 30.6389H54.0257L37.3452 13.9584H54.0257L70.7063 30.6389Z" fill="#191919"/>
<path d="M54.0257 64V47.3195L70.7063 30.6389V47.3195L54.0257 64Z" fill="#191919"/>
<path d="M20.6646 47.3195V30.6389L37.3452 13.9584V30.6389L20.6646 47.3195Z" fill="#191919"/>
<path d="M20.6646 47.3195L37.3452 64H54.0257L37.3452 47.3195H20.6646Z" fill="#191919"/>
</svg>
